<svg width="132" height="118" viewBox="0 0 132 118" fill="none" xmlns="http://www.w3.org/2000/svg">
<path fill-rule="evenodd" clip-rule="evenodd" d="M3.66385 36.5528C4.61417 36.2316 5.85585 35.9241 7.32929 35.6282C10.5832 34.9747 15.1108 34.3498 20.4764 33.7746C31.2155 32.6234 45.4016 31.6618 59.6717 31.0767C73.941 30.4916 88.3165 30.282 99.4327 30.638C104.987 30.8158 109.752 31.1356 113.292 31.6255C114.963 31.8567 116.39 32.1296 117.509 32.4534C115.71 29.1448 112.331 25.8641 107.946 22.7296C102.533 18.86 95.7518 15.3288 89.0084 12.3363C82.271 9.34636 75.604 6.90863 70.4376 5.21907C67.8545 4.37433 65.6524 3.71854 64.0094 3.27517C63.1871 3.05327 62.5118 2.88644 62.0024 2.77594C61.7474 2.72061 61.5412 2.68098 61.3831 2.65565C61.3043 2.64301 61.2422 2.6347 61.1952 2.62971C61.1506 2.62497 61.1299 2.62435 61.1274 2.62428C61.1271 2.62427 61.1271 2.62427 61.1272 2.62427C60.8502 2.62427 59.8142 2.73404 58.1207 3.01206C56.462 3.28435 54.2399 3.70652 51.6358 4.30385C46.4252 5.49908 39.7057 7.39092 32.9204 10.1762C19.9965 15.4812 7.19369 23.8763 3.66385 36.5528ZM120.402 34.1412C118.915 29.4126 114.58 25.0138 109.109 21.1025C103.541 17.1226 96.6245 13.528 89.8197 10.5082C83.0089 7.4857 76.2769 5.02445 71.0592 3.31813C68.4502 2.46493 66.214 1.79855 64.5305 1.34424C63.6895 1.11731 62.9796 0.941414 62.4265 0.821407C61.9104 0.70945 61.4375 0.624268 61.1272 0.624268C60.6598 0.624268 59.4625 0.765007 57.7967 1.03848C56.096 1.31767 53.8329 1.74795 51.1887 2.35448C45.9027 3.56699 39.0733 5.48856 32.1609 8.32599C18.4487 13.9546 4.00758 23.3557 1.19619 38.3424C0.941733 39.1478 0.747223 40.517 0.595454 42.2438C0.436041 44.0576 0.316607 46.3654 0.246489 49.043C0.106213 54.3999 0.162474 61.2713 0.498417 68.6964C1.16888 83.5149 2.95774 100.648 6.56756 112.355C6.71376 112.87 7.10209 113.214 7.42449 113.432C7.77476 113.669 8.21435 113.869 8.69925 114.046C9.67426 114.401 11.0088 114.721 12.6198 115.012C15.8534 115.598 20.3657 116.101 25.7265 116.516C36.4572 117.346 50.6903 117.834 65.125 117.917C79.5598 118.001 94.2184 117.681 105.8 116.892C111.588 116.498 116.627 115.985 120.493 115.344C122.425 115.023 124.085 114.667 125.408 114.27C126.698 113.883 127.79 113.423 128.479 112.834C129.8 111.705 130.574 109.625 131.042 107.159C131.522 104.634 131.723 101.465 131.714 97.8963C131.695 90.7532 130.832 81.864 129.563 73.0185C128.294 64.1677 126.614 55.3286 124.95 48.2759C124.118 44.7506 123.288 41.66 122.512 39.2321C121.786 36.9598 121.073 35.1531 120.402 34.1412ZM3.08591 39.0013C2.91412 39.5787 2.7369 40.7222 2.58777 42.4189C2.43313 44.1785 2.31527 46.4426 2.2458 49.0954C2.10692 54.3993 2.16232 61.2227 2.49637 68.606C3.16438 83.3702 4.9422 100.263 8.46286 111.714C8.48028 111.729 8.50667 111.749 8.54492 111.775C8.70362 111.883 8.97275 112.017 9.38348 112.167C10.1997 112.464 11.404 112.76 12.9764 113.044C16.1096 113.612 20.5424 114.108 25.8808 114.521C31.5902 114.963 38.3063 115.308 45.5245 115.546C44.9266 115.025 44.4559 114.323 44.0814 113.546C43.5791 112.504 43.2057 111.235 42.9337 109.847C42.3892 107.068 42.2234 103.663 42.3354 100.281C42.4475 96.8951 42.8399 93.485 43.4341 90.6852C43.7311 89.2862 44.0827 88.0194 44.4839 86.9755C44.8752 85.9577 45.3518 85.0484 45.9496 84.4613C46.3124 84.105 46.8204 83.8404 47.3469 83.6304C47.8929 83.4127 48.5515 83.2183 49.2918 83.0427C50.7735 82.6913 52.6668 82.3959 54.8175 82.153C59.1241 81.6666 64.5554 81.3806 69.9908 81.2989C75.4269 81.2172 80.8924 81.3395 85.2688 81.6748C87.455 81.8423 89.3885 82.0644 90.9184 82.3454C91.683 82.4859 92.3638 82.6441 92.9334 82.8237C93.4861 82.9979 94.0061 83.2139 94.3964 83.5014C95.1106 84.0274 95.6766 84.8902 96.1369 85.8615C96.6079 86.8554 97.0181 88.0715 97.3684 89.4206C98.0696 92.1213 98.5558 95.4553 98.7798 98.8375C99.0038 102.22 98.9681 105.69 98.609 108.662C98.2827 111.362 97.6718 113.824 96.615 115.394C99.7867 115.256 102.819 115.09 105.664 114.897C111.424 114.504 116.391 113.997 120.166 113.371C122.054 113.057 123.623 112.717 124.833 112.354C126.078 111.981 126.826 111.616 127.179 111.314C127.942 110.662 128.62 109.192 129.078 106.786C129.524 104.438 129.723 101.41 129.714 97.9015C129.695 90.8905 128.846 82.1043 127.584 73.3024C126.322 64.5057 124.652 55.7253 123.003 48.7351C122.178 45.2391 121.362 42.2025 120.607 39.841C119.837 37.4336 119.17 35.8523 118.677 35.1617C118.656 35.1321 118.556 35.024 118.271 34.8727C117.998 34.7276 117.618 34.5754 117.117 34.4231C116.116 34.1187 114.74 33.8448 113.018 33.6066C109.581 33.131 104.897 32.814 99.3687 32.6369C88.3191 32.2831 73.9964 32.491 59.7536 33.075C45.5117 33.659 31.3718 34.6181 20.6896 35.7632C15.3445 36.3362 10.8877 36.9535 7.72311 37.5891C6.13586 37.9078 4.90926 38.2244 4.06878 38.53C3.64594 38.6837 3.35958 38.821 3.18411 38.9325C3.13849 38.9615 3.10688 38.9846 3.08591 39.0013ZM65.1366 115.917C58.75 115.88 52.4072 115.764 46.395 115.574L47.1474 114.261C46.7294 114.021 46.2908 113.523 45.883 112.677C45.4804 111.842 45.1493 110.753 44.8964 109.462C44.391 106.883 44.2252 103.64 44.3343 100.348C44.4432 97.0593 44.8244 93.7678 45.3906 91.1005C45.6738 89.7659 45.9992 88.6078 46.3508 87.6931C46.7124 86.7523 47.0647 86.1694 47.351 85.8883C47.4302 85.8104 47.6452 85.6646 48.0877 85.4882C48.5108 85.3195 49.0673 85.1515 49.7533 84.9887C51.1242 84.6636 52.9286 84.379 55.042 84.1403C59.2634 83.6636 64.6258 83.3798 70.0208 83.2987C75.4152 83.2176 80.817 83.3395 85.116 83.669C87.2675 83.8338 89.1238 84.0492 90.5571 84.3125C91.2741 84.4442 91.8682 84.5849 92.3321 84.7311C92.8129 84.8827 93.085 85.0194 93.2104 85.1118C93.5277 85.3455 93.9195 85.8528 94.3295 86.718C94.7288 87.5606 95.1014 88.6474 95.4326 89.9232C96.0945 92.4726 96.5661 95.6774 96.7841 98.9697C97.0022 102.261 96.9642 105.602 96.6234 108.422C96.2756 111.301 95.633 113.44 94.7877 114.508L95.9427 115.422C86.4387 115.822 75.7334 115.979 65.1366 115.917ZM42.94 49.9608C43.1415 50.009 43.4762 50.0969 43.7324 50.2855C44.0336 50.5073 44.1886 50.8281 44.2688 51.0193C44.364 51.2462 44.4389 51.5073 44.5007 51.7755C44.625 52.3154 44.7221 53.0025 44.7975 53.7655C44.949 55.2989 45.0232 57.2484 45.0231 59.1835C45.023 61.1186 44.9486 63.0681 44.7969 64.6014C44.7214 65.3645 44.6242 66.0515 44.4998 66.5915C44.438 66.8597 44.3631 67.1207 44.2679 67.3476C44.1877 67.5388 44.0326 67.8595 43.7315 68.0813C43.4993 68.2523 43.1964 68.3492 42.9976 68.4074C42.7543 68.4786 42.4578 68.5474 42.1273 68.6141C41.4637 68.7481 40.5987 68.8864 39.6135 69.0237C37.6394 69.299 35.1282 69.578 32.6619 69.8155C30.1949 70.053 27.7606 70.2501 25.9383 70.3608C25.0297 70.416 24.2603 70.4504 23.7114 70.4567C23.442 70.4598 23.199 70.4566 23.0115 70.4414C22.9264 70.4345 22.8015 70.4215 22.6775 70.3888C22.6233 70.3745 22.4956 70.3383 22.3597 70.2529C22.2514 70.1849 21.9077 69.9346 21.8796 69.4509L21.8783 69.4417C21.8738 69.4097 21.8662 69.3608 21.8548 69.2922C21.8324 69.1561 21.799 68.9649 21.756 68.7218L21.6724 68.251L21.6724 68.2508C21.5981 67.8332 21.5083 67.3284 21.4095 66.7612C21.1298 65.1565 20.7742 63.0328 20.4738 60.8647C20.3838 60.2153 20.2984 59.5596 20.2214 58.9106L20.183 58.8679C20.1929 58.859 20.203 58.8501 20.2132 58.8413C20.0379 57.3539 19.9071 55.9048 19.8661 54.6539C19.8365 53.7493 19.8523 52.9135 19.9424 52.2275C19.9875 51.8844 20.0545 51.5514 20.1565 51.2536C20.2426 51.0024 20.3723 50.7202 20.5814 50.4785C20.6966 50.3172 20.8325 50.2102 20.9298 50.1446C21.0715 50.0491 21.2215 49.9814 21.3523 49.9318C21.6142 49.8323 21.9281 49.7577 22.2554 49.6977C22.9184 49.5762 23.7979 49.4867 24.799 49.4214C26.8105 49.2902 29.4294 49.2496 32.051 49.2769C34.6747 49.3041 37.3223 49.3996 39.3952 49.5437C40.4296 49.6156 41.3354 49.7006 42.029 49.7977C42.3741 49.846 42.6847 49.8997 42.94 49.9608ZM22.3851 60.0781C22.4079 60.2487 22.4312 60.4195 22.4549 60.5902C22.7506 62.7249 23.1018 64.8226 23.3798 66.4178C23.478 66.9815 23.5667 67.48 23.6408 67.8967C23.6717 68.0702 23.7 68.2296 23.7255 68.3735L23.7401 68.4562C24.2375 68.4489 24.9488 68.4172 25.8171 68.3645C27.1418 68.284 28.8037 68.1566 30.5701 68.0002C30.4601 67.7685 30.3662 67.5261 30.2845 67.2859C30.0516 66.6009 29.8671 65.7747 29.7232 64.8781C29.4784 63.352 29.3398 61.5477 29.3037 59.7378C27.4091 59.7086 25.6796 59.7345 24.2919 59.8386C23.5219 59.8963 22.8804 59.9766 22.3851 60.0781ZM32.3665 67.8346C32.4011 67.8313 32.4356 67.828 32.4702 67.8247C34.9218 67.5886 37.4021 67.3127 39.3373 67.0429C40.3068 66.9077 41.126 66.7759 41.7316 66.6537C42.0357 66.5923 42.27 66.5365 42.4357 66.488L42.4581 66.4813C42.4856 66.3998 42.5173 66.2883 42.5509 66.1425C42.6476 65.7227 42.7346 65.1317 42.8066 64.4045C42.9154 63.3049 42.9838 61.9556 43.0104 60.5399C39.8238 60.2453 35.3821 59.9181 31.3051 59.7864C31.3426 61.4944 31.4747 63.1699 31.698 64.5613C31.8318 65.3955 31.9944 66.1019 32.1781 66.642C32.3739 67.218 32.5501 67.4708 32.6297 67.5426L32.3665 67.8346ZM43.0202 58.5323C43.0055 56.8633 42.9338 55.2433 42.8072 53.9622C42.7353 53.235 42.6483 52.644 42.5517 52.2242C42.5205 52.089 42.491 51.9833 42.4649 51.9036C42.2982 51.8642 42.0611 51.8217 41.7518 51.7784C41.1244 51.6906 40.2708 51.6094 39.2565 51.5389C37.298 51.4027 34.7943 51.3099 32.284 51.2796C32.2465 51.3413 32.2011 51.4279 32.1509 51.5455C31.9856 51.9324 31.8282 52.5099 31.6952 53.2588C31.4741 54.5043 31.342 56.0962 31.3049 57.7853C35.3769 57.915 39.8028 58.2379 43.0202 58.5323ZM30.1211 51.2694C29.9612 51.7562 29.8316 52.3145 29.726 52.9092C29.4824 54.2813 29.3442 55.9787 29.3054 57.7376C27.389 57.7086 25.6042 57.7345 24.1423 57.8442C23.3994 57.8999 22.7204 57.9786 22.14 58.0881C21.9998 56.8263 21.8991 55.6261 21.865 54.5884C21.8369 53.7303 21.8558 53.0179 21.9254 52.488C21.9602 52.2231 22.0042 52.0312 22.0485 51.9019C22.0695 51.8406 22.0864 51.8058 22.0949 51.7897C22.1972 51.7546 22.3661 51.7107 22.6159 51.6649C23.165 51.5643 23.9541 51.4808 24.9292 51.4172C26.3907 51.3219 28.2052 51.2752 30.1211 51.2694ZM21.882 69.4706L21.8813 69.4638L21.8818 69.4687C21.882 69.4701 21.8821 69.4707 21.882 69.4706ZM42.4001 51.7423C42.4002 51.742 42.4027 51.7459 42.4072 51.7548C42.4023 51.7471 42.4 51.7426 42.4001 51.7423ZM42.3992 66.6245C42.3991 66.6242 42.4014 66.6197 42.4063 66.612C42.4031 66.6183 42.401 66.6221 42.3999 66.6236C42.3995 66.6243 42.3993 66.6246 42.3992 66.6245ZM23.8777 69.3873C23.8777 69.3622 23.8767 69.3368 23.8751 69.3124C23.8768 69.3367 23.8777 69.3617 23.8777 69.3873Z" fill="#303030"/>
</svg>
